<svg width="24" height="24" viewBox="0 0 24 24" fill="none" xmlns="http://www.w3.org/2000/svg">
<path d="M12.5 11.95C12.9833 11.4167 13.3543 10.8083 13.613 10.125C13.8717 9.44167 14.0007 8.73333 14 8C13.9993 7.26667 13.8703 6.55833 13.613 5.875C13.3557 5.19167 12.9847 4.58333 12.5 4.05C13.5 4.18333 14.3333 4.625 15 5.375C15.6667 6.125 16 7 16 8C16 9 15.6667 9.875 15 10.625C14.3333 11.375 13.5 11.8167 12.5 11.95ZM18 20V17C18 16.4 17.8667 15.829 17.6 15.287C17.3333 14.745 16.9833 14.266 16.55 13.85C17.4 14.15 18.1877 14.5377 18.913 15.013C19.6383 15.4883 20.0007 16.1507 20 17V20H18ZM20 13V11H18V9H20V7H22V9H24V11H22V13H20ZM8 12C6.9 12 5.95833 11.6083 5.175 10.825C4.39167 10.0417 4 9.1 4 8C4 6.9 4.39167 5.95833 5.175 5.175C5.95833 4.39167 6.9 4 8 4C9.1 4 10.0417 4.39167 10.825 5.175C11.6083 5.95833 12 6.9 12 8C12 9.1 11.6083 10.0417 10.825 10.825C10.0417 11.6083 9.1 12 8 12ZM0 20V17.2C0 16.6333 0.146 16.1127 0.438 15.638C0.73 15.1633 1.11733 14.8007 1.6 14.55C2.63333 14.0333 3.68333 13.646 4.75 13.388C5.81667 13.13 6.9 13.0007 8 13C9.1 12.9993 10.1833 13.1287 11.25 13.388C12.3167 13.6473 13.3667 14.0347 14.4 14.55C14.8833 14.8 15.271 15.1627 15.563 15.638C15.855 16.1133 16.0007 16.634 16 17.2V20H0Z" fill="white"/>
</svg>
