<svg width="38" height="38" viewBox="0 0 13 13" fill="none" xmlns="http://www.w3.org/2000/svg">
    <path
        d="M0.833333 0.125C0.442135 0.125 0.125 0.442135
         0.125 0.833333V5.08333C0.125 5.47455 0.442135 5.79167 0.833333 5.79167H5.08333C5.47455
         5.79167 5.79167 5.47455 5.79167 5.08333V0.833333C5.79167 0.442135 5.47455 0.125 5.08333
         0.125H0.833333ZM0.833333 7.20833C0.442135 7.20833 0.125 7.52545 0.125
         7.91667V12.1667C0.125 12.5579 0.442135 12.875 0.833333
         12.875H5.08333C5.47455 12.875 5.79167 12.5579 5.79167
         12.1667V7.91667C5.79167 7.52545 5.47455 7.20833 5.08333
         7.20833H0.833333ZM7.91667 7.20833C7.52545 7.20833 7.20833
         7.52545 7.20833 7.91667V12.1667C7.20833 12.5579 7.52545 12.875
         7.91667 12.875H12.1667C12.5579 12.875 12.875 12.5579 12.875
         12.1667V7.91667C12.875 7.52545 12.5579 7.20833 12.1667
         7.20833H7.91667ZM9.33333 5.79167V3.66667H7.20833V2.25H9.33333V0.125H10.75V2.25H12.875V3.66667H10.75V5.79167H9.33333Z"
        fill="#ffffff" />
</svg>
