<svg width="33" height="32" viewBox="0 0 33 32" fill="none" xmlns="http://www.w3.org/2000/svg">
    <path opacity="0.4"
        d="M20.5133 19.6666V29.32L4.51335 29.3467V19.6666L4.5 17.6666V9.42665C4.5 8.53332 4.95335 7.7066 5.68669 7.21327L11.02 3.65329C11.9134 3.05329 13.0866 3.05329 13.98 3.65329L19.3133 7.21327C20.06 7.7066 20.5 8.53332 20.5 9.42665V17.6666L20.5133 19.6666Z"
        fill="#F04438" />
    <path
        d="M29.8332 28.3333H28.1398V24.3333C29.4065 23.92 30.3265 22.7333 30.3265 21.3333V18.6667C30.3265 16.92 28.8998 15.4933 27.1532 15.4933C25.4065 15.4933 23.9798 16.92 23.9798 18.6667V21.3333C23.9798 22.72 24.8865 23.8933 26.1265 24.32V28.3333H3.1665C2.61984 28.3333 2.1665 28.7867 2.1665 29.3333C2.1665 29.88 2.61984 30.3333 3.1665 30.3333H27.0732C27.0998 30.3333 27.1131 30.3467 27.1398 30.3467C27.1665 30.3467 27.1799 30.3333 27.2065 30.3333H29.8332C30.3798 30.3333 30.8332 29.88 30.8332 29.3333C30.8332 28.7867 30.3798 28.3333 29.8332 28.3333Z"
        fill="#F04438" />
    <path d="M20.5133 19.6667H4.51335L4.5 17.6667H20.5L20.5133 19.6667Z" fill="#F04438" />
    <path
        d="M12.5 30.3333C11.9533 30.3333 11.5 29.88 11.5 29.3333V24.3333C11.5 23.7867 11.9533 23.3333 12.5 23.3333C13.0467 23.3333 13.5 23.7867 13.5 24.3333V29.3333C13.5 29.88 13.0467 30.3333 12.5 30.3333Z"
        fill="#F04438" />
    <path
        d="M12.4998 14.3333C13.7885 14.3333 14.8332 13.2887 14.8332 12C14.8332 10.7113 13.7885 9.66667 12.4998 9.66667C11.2112 9.66667 10.1665 10.7113 10.1665 12C10.1665 13.2887 11.2112 14.3333 12.4998 14.3333Z"
        fill="#F04438" />
</svg>
