<svg width="33" height="32" viewBox="0 0 33 32" fill="none" xmlns="http://www.w3.org/2000/svg">
<path opacity="0.4" d="M29.8198 8.0266C29.8465 8.3466 29.8198 8.67992 29.7398 9.01325L25.2465 27.0532C24.9265 28.3999 23.7265 29.3332 22.3398 29.3332H4.81982C2.80648 29.3332 1.37984 27.3599 1.9665 25.4266L7.57982 7.38655C7.96649 6.13321 9.12651 5.27994 10.4332 5.27994H26.8332C28.1132 5.27994 29.1532 6.03993 29.5932 7.1066C29.7265 7.3866 29.7931 7.7066 29.8198 8.0266Z" fill="#254EDB"/>
<path d="M31.1532 26.16C31.2865 27.88 29.9265 29.3333 28.2065 29.3333H22.3398C23.7265 29.3333 24.9265 28.4 25.2465 27.0533L29.7398 9.01335C29.8198 8.68001 29.8465 8.34669 29.8198 8.02669L29.8332 8L31.1532 26.16Z" fill="#254EDB"/>
<path d="M13.4065 9.50667C13.3265 9.50667 13.2465 9.49331 13.1665 9.47998C12.6332 9.34664 12.2999 8.81335 12.4332 8.26668L13.8198 2.50667C13.9532 1.97334 14.4865 1.65335 15.0332 1.77335C15.5665 1.90669 15.8999 2.43998 15.7665 2.98665L14.3799 8.74666C14.2732 9.19999 13.8599 9.50667 13.4065 9.50667Z" fill="#254EDB"/>
<path d="M22.3399 9.51998C22.2733 9.51998 22.1932 9.51995 22.1266 9.49329C21.5932 9.37329 21.2466 8.83993 21.3533 8.3066L22.6066 2.51998C22.7266 1.97331 23.2599 1.63996 23.7932 1.74662C24.3266 1.86662 24.6732 2.39998 24.5666 2.93331L23.3132 8.71993C23.2199 9.19993 22.8066 9.51998 22.3399 9.51998Z" fill="#254EDB"/>
<path d="M21.4333 17H10.7666C10.2199 17 9.7666 16.5467 9.7666 16C9.7666 15.4533 10.2199 15 10.7666 15H21.4333C21.9799 15 22.4333 15.4533 22.4333 16C22.4333 16.5467 21.9799 17 21.4333 17Z" fill="#254EDB"/>
<path d="M20.1003 22.3333H9.43359C8.88693 22.3333 8.43359 21.88 8.43359 21.3333C8.43359 20.7867 8.88693 20.3333 9.43359 20.3333H20.1003C20.6469 20.3333 21.1003 20.7867 21.1003 21.3333C21.1003 21.88 20.6469 22.3333 20.1003 22.3333Z" fill="#254EDB"/>
</svg>
