<svg width="33" height="32" viewBox="0 0 33 32" fill="none" xmlns="http://www.w3.org/2000/svg">
<path d="M28.4602 1.33333H24.5402C22.8468 1.33333 21.8335 2.34666 21.8335 4.03999V7.95999C21.8335 9.65333 22.8468 10.6667 24.5402 10.6667H28.4602C30.1535 10.6667 31.1668 9.65333 31.1668 7.95999V4.03999C31.1668 2.34666 30.1535 1.33333 28.4602 1.33333ZM29.3135 6.24C28.8202 7.81333 27.1002 8.66666 26.5002 8.66666C25.9002 8.66666 24.1935 7.83999 23.6868 6.24C23.6068 5.99999 23.5668 5.73333 23.5668 5.48C23.5668 4.61333 24.0068 3.71999 24.9268 3.42666C25.4735 3.25333 26.0602 3.34666 26.4735 3.69333C26.9002 3.35999 27.4868 3.25333 28.0468 3.42666C29.2735 3.81333 29.6602 5.18666 29.3135 6.24Z" fill="#EF6820"/>
<path opacity="0.4" d="M28.4598 10.6667H24.5398C22.8465 10.6667 21.8332 9.65334 21.8332 7.96V4.04001C21.8332 3.50667 21.9398 3.05334 22.1265 2.66667H9.83317C6.15317 2.66667 3.1665 5.64001 3.1665 9.30667V17.28V18.6133C3.1665 22.28 6.15317 25.2533 9.83317 25.2533H11.8332C12.1932 25.2533 12.6732 25.4933 12.8998 25.7867L14.8998 28.44C15.7798 29.6133 17.2198 29.6133 18.0998 28.44L20.0998 25.7867C20.3532 25.4533 20.7532 25.2533 21.1665 25.2533H23.1665C26.8465 25.2533 29.8332 22.28 29.8332 18.6133V10.36C29.4465 10.56 28.9932 10.6667 28.4598 10.6667Z" fill="#EF6820"/>
<path d="M16.4998 16C15.7532 16 15.1665 15.4 15.1665 14.6667C15.1665 13.9333 15.7665 13.3333 16.4998 13.3333C17.2332 13.3333 17.8332 13.9333 17.8332 14.6667C17.8332 15.4 17.2465 16 16.4998 16Z" fill="#EF6820"/>
<path d="M21.8333 16C21.0867 16 20.5 15.4 20.5 14.6667C20.5 13.9333 21.1 13.3333 21.8333 13.3333C22.5667 13.3333 23.1667 13.9333 23.1667 14.6667C23.1667 15.4 22.58 16 21.8333 16Z" fill="#EF6820"/>
<path d="M11.1668 16C10.4202 16 9.8335 15.4 9.8335 14.6667C9.8335 13.9333 10.4335 13.3333 11.1668 13.3333C11.9002 13.3333 12.5002 13.9333 12.5002 14.6667C12.5002 15.4 11.9135 16 11.1668 16Z" fill="#EF6820"/>
</svg>
