<svg width="33" height="32" viewBox="0 0 33 32" fill="none" xmlns="http://www.w3.org/2000/svg">
<path opacity="0.4" d="M4.19317 13.3333C3.61984 13.3333 3.1665 12.88 3.1665 12.3067V9.22666C3.1665 5.61332 6.11317 2.66666 9.7265 2.66666H12.8065C13.3798 2.66666 13.8332 3.11999 13.8332 3.69332C13.8332 4.26666 13.3798 4.71999 12.8065 4.71999H9.7265C7.23317 4.71999 5.21984 6.74666 5.21984 9.22666V12.3067C5.21984 12.88 4.75317 13.3333 4.19317 13.3333Z" fill="#16B364"/>
<path opacity="0.4" d="M28.8065 13.3333C28.2465 13.3333 27.7798 12.88 27.7798 12.3067V9.22666C27.7798 6.73332 25.7532 4.71999 23.2732 4.71999H20.1932C19.6198 4.71999 19.1665 4.25332 19.1665 3.69332C19.1665 3.13332 19.6198 2.66666 20.1932 2.66666H23.2732C26.8865 2.66666 29.8332 5.61332 29.8332 9.22666V12.3067C29.8332 12.88 29.3798 13.3333 28.8065 13.3333Z" fill="#16B364"/>
<path d="M23.2736 29.3333H21.4202C20.8602 29.3333 20.3936 28.88 20.3936 28.3067C20.3936 27.7467 20.8469 27.28 21.4202 27.28H23.2736C25.7669 27.28 27.7802 25.2533 27.7802 22.7733V20.9333C27.7802 20.3733 28.2336 19.9067 28.8069 19.9067C29.3669 19.9067 29.8336 20.36 29.8336 20.9333V22.7733C29.8336 26.3867 26.8869 29.3333 23.2736 29.3333Z" fill="#16B364"/>
<path d="M12.8065 29.3333H9.7265C6.11317 29.3333 3.1665 26.3867 3.1665 22.7733V19.6933C3.1665 19.12 3.61984 18.6667 4.19317 18.6667C4.7665 18.6667 5.21984 19.12 5.21984 19.6933V22.7733C5.21984 25.2667 7.2465 27.28 9.7265 27.28H12.8065C13.3665 27.28 13.8332 27.7333 13.8332 28.3067C13.8332 28.88 13.3798 29.3333 12.8065 29.3333Z" fill="#16B364"/>
<path d="M25.1132 14.9733H23.2999H9.69986H7.88653C7.3132 14.9733 6.85986 15.44 6.85986 16C6.85986 16.56 7.3132 17.0267 7.88653 17.0267H9.69986H23.2999H25.1132C25.6865 17.0267 26.1399 16.56 26.1399 16C26.1399 15.44 25.6865 14.9733 25.1132 14.9733Z" fill="#16B364"/>
<path d="M9.7002 18.5867V19.0267C9.7002 21.24 11.4869 23.0267 13.7002 23.0267H19.3002C21.5135 23.0267 23.3002 21.24 23.3002 19.0267V18.5867C23.3002 18.4267 23.1802 18.3067 23.0202 18.3067H9.9802C9.8202 18.3067 9.7002 18.4267 9.7002 18.5867Z" fill="#16B364"/>
<path opacity="0.4" d="M9.7002 13.4133V12.9733C9.7002 10.76 11.4869 8.97333 13.7002 8.97333H19.3002C21.5135 8.97333 23.3002 10.76 23.3002 12.9733V13.4133C23.3002 13.5733 23.1802 13.6933 23.0202 13.6933H9.9802C9.8202 13.6933 9.7002 13.5733 9.7002 13.4133Z" fill="#16B364"/>
</svg>
